<svg xmlns="http://www.w3.org/2000/svg" width="700" height="300" viewBox="0 0 700 300">
<rect width="100%" height="100%" fill="#000000"/>
<text x="30" y="40" font-family="Arial, Helvetica, sans-serif" font-size="24px" fill="#E6EDF3" font-weight="bold" text-anchor="start">Top Languages</text>
<text x="30" y="64" font-family="Arial, Helvetica, sans-serif" font-size="13px" fill="#8B949E" font-weight="normal" text-anchor="start">Based on languages detected across repositories</text>
<rect x="30" y="88" width="443.50" height="18" fill="#A371F7"/>
<rect x="473.4974838645175" y="88" width="151.45" height="18" fill="#58A6FF"/>
<rect x="624.9442673213433" y="88" width="21.42" height="18" fill="#3FB950"/>
<rect x="646.3619680289717" y="88" width="10.46" height="18" fill="#F0883E"/>
<rect x="656.8251813506038" y="88" width="5.30" height="18" fill="#FF7B72"/>
<rect x="662.1261067108055" y="88" width="2.94" height="18" fill="#D2A8FF"/>
<rect x="665.0666414867973" y="88" width="2.70" height="18" fill="#79C0FF"/>
<circle cx="35" cy="140" r="6" fill="#A371F7"/>
<text x="50" y="145" font-family="Arial, Helvetica, sans-serif" font-size="14px" fill="#E6EDF3" font-weight="normal" text-anchor="start">TypeScript  69.3%</text>
<circle cx="355" cy="140" r="6" fill="#58A6FF"/>
<text x="370" y="145" font-family="Arial, Helvetica, sans-serif" font-size="14px" fill="#E6EDF3" font-weight="normal" text-anchor="start">Python  23.7%</text>
<circle cx="35" cy="178" r="6" fill="#3FB950"/>
<text x="50" y="183" font-family="Arial, Helvetica, sans-serif" font-size="14px" fill="#E6EDF3" font-weight="normal" text-anchor="start">C  3.3%</text>
<circle cx="355" cy="178" r="6" fill="#F0883E"/>
<text x="370" y="183" font-family="Arial, Helvetica, sans-serif" font-size="14px" fill="#E6EDF3" font-weight="normal" text-anchor="start">CSS  1.6%</text>
<circle cx="35" cy="216" r="6" fill="#FF7B72"/>
<text x="50" y="221" font-family="Arial, Helvetica, sans-serif" font-size="14px" fill="#E6EDF3" font-weight="normal" text-anchor="start">JavaScript  0.8%</text>
<circle cx="355" cy="216" r="6" fill="#D2A8FF"/>
<text x="370" y="221" font-family="Arial, Helvetica, sans-serif" font-size="14px" fill="#E6EDF3" font-weight="normal" text-anchor="start">C++  0.5%</text>
<circle cx="35" cy="254" r="6" fill="#79C0FF"/>
<text x="50" y="259" font-family="Arial, Helvetica, sans-serif" font-size="14px" fill="#E6EDF3" font-weight="normal" text-anchor="start">HTML  0.4%</text>
</svg>